<svg id="badge-google-play_svg__artwork" xmlns="http://www.w3.org/2000/svg" x="0" y="0" viewBox="0 0 140 45" xml:space="preserve"><style>.badge-google-play_svg__st1{fill:#fff;stroke:#fff;stroke-width:.2;stroke-miterlimit:10}.badge-google-play_svg__st8{opacity:.12;enable-background:new}</style><path d="M133 42.4H8c-2.8 0-5-2.2-5-5v-30c0-2.8 2.3-5 5-5h125c2.8 0 5 2.2 5 5v30c0 2.8-2.3 5-5 5z"></path><path d="M133 3.2c2.3 0 4.2 1.9 4.2 4.2v30c0 2.3-1.9 4.2-4.2 4.2H8c-2.3 0-4.2-1.9-4.2-4.2v-30c0-2.3 1.9-4.2 4.2-4.2h125m0-.8H8c-2.8 0-5 2.2-5 5v30c0 2.8 2.3 5 5 5h125c2.8 0 5-2.2 5-5v-30c0-2.7-2.3-5-5-5z" fill="#a6a6a6"></path><path class="badge-google-play_svg__st1" d="M50.4 12.7c0 .8-.2 1.5-.7 2-.6.6-1.3.9-2.2.9s-1.6-.3-2.2-.9c-.6-.6-.9-1.3-.9-2.2s.3-1.6.9-2.2c.6-.6 1.3-.9 2.2-.9.4 0 .8.1 1.2.3s.7.4.9.7l-.5.5c-.4-.5-.9-.7-1.6-.7-.6 0-1.2.2-1.6.7-.5.4-.7 1-.7 1.7s.2 1.3.7 1.7 1 .7 1.6.7c.7 0 1.2-.2 1.7-.7.3-.3.5-.7.5-1.2h-2.2v-.7h2.9v.3zM55 10.2h-2.7v1.9h2.5v.7h-2.5v1.9H55v.7h-3.5v-6H55v.8zM58.2 15.4h-.8v-5.2h-1.7v-.8h4.1v.7h-1.7v5.3h.1zM62.9 15.4v-6h.8v6h-.8zM67.1 15.4h-.8v-5.2h-1.7v-.8h4.1v.7H67l.1 5.3zM76.6 14.6c-.6.6-1.4.9-2.2.9-.9 0-1.6-.3-2.2-.9-.6-.6-.9-1.3-.9-2.2s.3-1.6.9-2.2c.6-.6 1.3-.9 2.2-.9.9 0 1.6.3 2.2.9s.9 1.3.9 2.2-.3 1.6-.9 2.2zm-3.9-.5c.4.4 1 .7 1.6.7s1.2-.2 1.6-.7c.4-.4.7-1 .7-1.7s-.2-1.3-.7-1.7c-.4-.4-1-.7-1.6-.7s-1.2.2-1.6.7c-.4.4-.7 1-.7 1.7.1.7.3 1.3.7 1.7zM78.5 15.4v-6h.9l2.9 4.7V9.4h.8v6h-.8l-3-4.9v4.9h-.8z"></path><path d="M71.1 24.2c-2.4 0-4.3 1.8-4.3 4.3 0 2.4 1.9 4.3 4.3 4.3s4.3-1.8 4.3-4.3-2-4.3-4.3-4.3zm0 6.8c-1.3 0-2.4-1.1-2.4-2.6s1.1-2.6 2.4-2.6 2.4 1 2.4 2.6c0 1.5-1.1 2.6-2.4 2.6zm-9.3-6.8c-2.4 0-4.3 1.8-4.3 4.3 0 2.4 1.9 4.3 4.3 4.3s4.3-1.8 4.3-4.3c-.1-2.5-2-4.3-4.3-4.3zm0 6.8c-1.3 0-2.4-1.1-2.4-2.6s1.1-2.6 2.4-2.6c1.3 0 2.4 1 2.4 2.6 0 1.5-1.1 2.6-2.4 2.6zm-11.1-5.5v1.8H55c-.1 1-.5 1.8-1 2.3-.6.6-1.6 1.3-3.3 1.3-2.7 0-4.7-2.1-4.7-4.8s2.1-4.8 4.7-4.8c1.4 0 2.5.6 3.3 1.3l1.3-1.3c-1.1-1-2.5-1.8-4.5-1.8-3.6 0-6.7 3-6.7 6.6s3.1 6.6 6.7 6.6c2 0 3.4-.6 4.6-1.9 1.2-1.2 1.6-2.9 1.6-4.2 0-.4 0-.8-.1-1.1h-6.2zM96 26.9c-.4-1-1.4-2.7-3.6-2.7s-4 1.7-4 4.3c0 2.4 1.8 4.3 4.2 4.3 1.9 0 3.1-1.2 3.5-1.9l-1.4-1c-.5.7-1.1 1.2-2.1 1.2s-1.6-.4-2.1-1.3l5.7-2.4-.2-.5zm-5.8 1.4c0-1.6 1.3-2.5 2.2-2.5.7 0 1.4.4 1.6.9l-3.8 1.6zm-4.6 4.1h1.9V19.9h-1.9v12.5zm-3.1-7.3c-.5-.5-1.3-1-2.3-1-2.1 0-4.1 1.9-4.1 4.3s1.9 4.2 4.1 4.2c1 0 1.8-.5 2.2-1h.1v.6c0 1.6-.9 2.5-2.3 2.5-1.1 0-1.9-.8-2.1-1.5l-1.6.7c.5 1.1 1.7 2.5 3.8 2.5 2.2 0 4-1.3 4-4.4v-7.6h-1.8v.7zM80.4 31c-1.3 0-2.4-1.1-2.4-2.6s1.1-2.6 2.4-2.6 2.3 1.1 2.3 2.6-1 2.6-2.3 2.6zm24.4-11.1h-4.5v12.5h1.9v-4.7h2.6c2.1 0 4.1-1.5 4.1-3.9s-2.1-3.9-4.1-3.9zm0 6h-2.7v-4.3h2.7c1.4 0 2.2 1.2 2.2 2.1 0 1.1-.8 2.2-2.2 2.2zm11.5-1.8c-1.4 0-2.8.6-3.3 1.9l1.7.7c.4-.7 1-.9 1.7-.9 1 0 1.9.6 2 1.6v.1c-.3-.2-1.1-.5-1.9-.5-1.8 0-3.6 1-3.6 2.8 0 1.7 1.5 2.8 3.1 2.8 1.3 0 1.9-.6 2.4-1.2h.1v1h1.8v-4.8c-.2-2.2-1.8-3.5-4-3.5zm-.2 6.9c-.6 0-1.5-.3-1.5-1.1 0-1 1.1-1.3 2-1.3.8 0 1.2.2 1.7.4-.1 1.2-1.1 2-2.2 2zm10.6-6.6l-2.1 5.4h-.1l-2.2-5.4h-2l3.3 7.6-1.9 4.2h1.9l5.1-11.8h-2zm-16.8 8h1.9V19.9h-1.9v12.5z" fill="#fff"></path><g><linearGradient id="badge-google-play_svg__SVGID_1_" gradientUnits="userSpaceOnUse" x1="24.792" y1="527.158" x2="8.01" y2="543.94" gradientTransform="translate(0 -516)"><stop offset="0" stop-color="#00a0ff"></stop><stop offset="0.007" stop-color="#00a1ff"></stop><stop offset="0.26" stop-color="#00beff"></stop><stop offset="0.512" stop-color="#00d2ff"></stop><stop offset="0.76" stop-color="#00dfff"></stop><stop offset="1" stop-color="#00e3ff"></stop></linearGradient><path d="M13.4 10c-.3.3-.5.8-.5 1.4v22.1c0 .6.2 1.1.5 1.4l.1.1 12.4-12.4v-.2L13.4 10z" fill="url(#badge-google-play_svg__SVGID_1_)"></path><linearGradient id="badge-google-play_svg__SVGID_2_" gradientUnits="userSpaceOnUse" x1="36.792" y1="538.5" x2="12.596" y2="538.5" gradientTransform="translate(0 -516)"><stop offset="0" stop-color="#ffe000"></stop><stop offset="0.409" stop-color="#ffbd00"></stop><stop offset="0.775" stop-color="orange"></stop><stop offset="1" stop-color="#ff9c00"></stop></linearGradient><path d="M30 26.7l-4.1-4.1v-.2l4.1-4.1.1.1 4.9 2.8c1.4.8 1.4 2.1 0 2.9l-5 2.6z" fill="url(#badge-google-play_svg__SVGID_2_)"></path><linearGradient id="badge-google-play_svg__SVGID_3_" gradientUnits="userSpaceOnUse" x1="27.788" y1="540.712" x2="5.029" y2="563.471" gradientTransform="translate(0 -516)"><stop offset="0" stop-color="#ff3a44"></stop><stop offset="1" stop-color="#c31162"></stop></linearGradient><path d="M30.1 26.6l-4.2-4.2-12.5 12.5c.5.5 1.2.5 2.1.1l14.6-8.4" fill="url(#badge-google-play_svg__SVGID_3_)"></path><linearGradient id="badge-google-play_svg__SVGID_4_" gradientUnits="userSpaceOnUse" x1="10.248" y1="518.597" x2="20.41" y2="528.76" gradientTransform="translate(0 -516)"><stop offset="0" stop-color="#32a071"></stop><stop offset="0.069" stop-color="#2da771"></stop><stop offset="0.476" stop-color="#15cf74"></stop><stop offset="0.801" stop-color="#06e775"></stop><stop offset="1" stop-color="#00f076"></stop></linearGradient><path d="M30.1 18.2L15.5 9.9c-.9-.5-1.6-.4-2.1.1l12.5 12.5 4.2-4.3z" fill="url(#badge-google-play_svg__SVGID_4_)"></path><path d="M30 26.5l-14.5 8.2c-.8.5-1.5.4-2 0l-.1.1.1.1c.5.4 1.2.5 2 0L30 26.5z" opacity="0.2"></path><path class="badge-google-play_svg__st8" d="M13.4 34.7c-.3-.3-.5-.8-.5-1.4v.2c0 .6.2 1.1.5 1.4v-.2zM35 23.7l-5 2.8.1.1 4.9-2.8c.7-.4 1-.9 1-1.4 0 .5-.4 1-1 1.3z"></path><path d="M15.5 10L35 21.1c.6.4 1 .8 1 1.3 0-.5-.3-1-1-1.4L15.5 9.9c-1.4-.8-2.5-.1-2.5 1.5v.1c-.1-1.6 1.1-2.3 2.5-1.5z" opacity="0.25" fill="#fff"></path></g></svg>