<svg fill="#fff" id="badge-app-store_svg__artwork" xmlns="http://www.w3.org/2000/svg" x="0" y="0" viewBox="0 0 140 45" xml:space="preserve"><style>.badge-app-store_svg__st1{fill:#fff}</style><path  d="M113.2 2.4H10.6c-.7 0-1.3.1-2 .2-.6.1-1.3.3-1.9.6-.6.3-1.1.7-1.6 1.2s-.9 1-1.2 1.6-.5 1.2-.6 1.9c-.1.7-.2 1.3-.2 2v24.9c0 .7.1 1.3.2 2s.3 1.3.6 1.9c.3.6.7 1.1 1.2 1.6s1 .9 1.6 1.2 1.2.5 1.9.6 1.3.2 2 .2h104.6c.7 0 1.3-.1 2-.2s1.3-.3 1.9-.6 1.1-.7 1.6-1.2.9-1 1.2-1.6c.3-.6.5-1.2.6-1.9s.2-1.3.2-2v-.9-22-1.1-.9c0-.7-.1-1.3-.2-2s-.3-1.3-.6-1.9c-.6-1.2-1.6-2.2-2.8-2.8-.6-.3-1.2-.5-1.9-.6-.7-.1-1.3-.2-2-.2h-2z" fill="#a6a6a6"></path><path d="M11.5 41.5h-.9c-.6 0-1.3-.1-1.9-.2-.5-.1-1.1-.2-1.6-.5s-1-.6-1.4-1-.8-.9-1-1.4c-.3-.5-.4-1.1-.5-1.7-.1-.6-.2-1.2-.2-1.9v-24-.9c0-.6.1-1.2.2-1.8.1-.6.3-1.1.5-1.7.3-.5.6-1 1-1.4s.9-.8 1.4-1c.5-.3 1.1-.4 1.7-.5.6-.1 1.2-.2 1.9-.2H115.3c.6 0 1.2.1 1.9.2.6.1 1.1.3 1.7.5 1 .5 1.9 1.4 2.4 2.4.3.5.4 1.1.5 1.6.1.6.2 1.3.2 1.9v24.9c0 .6-.1 1.2-.2 1.9-.1.6-.3 1.1-.5 1.7-.3.5-.6 1-1 1.4s-.9.8-1.4 1c-.5.3-1.1.5-1.7.5-.6.1-1.2.2-1.9.2H11.5z"></path><g id="badge-app-store_svg___Group_"><g id="badge-app-store_svg___Group_2"><g id="badge-app-store_svg___Group_3"><path id="badge-app-store_svg___Path_" class="badge-app-store_svg__st1" d="M27.9 22.8c0-1.7.9-3.3 2.4-4.2-.9-1.3-2.4-2.1-4-2.2-1.7-.2-3.3 1-4.2 1s-2.2-1-3.6-1c-1.9.1-3.6 1.1-4.5 2.7-1.9 3.3-.5 8.3 1.4 11 .9 1.3 2 2.8 3.4 2.8 1.4-.1 1.9-.9 3.6-.9s2.1.9 3.6.9 2.4-1.3 3.3-2.7c.7-.9 1.2-2 1.5-3.1-1.8-.7-2.9-2.5-2.9-4.3z"></path><path id="badge-app-store_svg___Path_2" class="badge-app-store_svg__st1" d="M25.1 14.6c.8-1 1.2-2.2 1.1-3.5-1.2.1-2.4.7-3.2 1.7-.8.9-1.2 2.1-1.1 3.4 1.3-.1 2.4-.6 3.2-1.6z"></path></g></g><path class="badge-app-store_svg__st1" d="M45.4 29.5h-4.7l-1.1 3.4h-2l4.5-12.4h2l4.5 12.4h-2l-1.2-3.4zM41.2 28H45l-1.9-5.5H43L41.2 28zM58.3 28.4c0 2.8-1.5 4.6-3.8 4.6-1.2.1-2.3-.6-2.8-1.6v4.5h-1.9v-12h1.8v1.5c.6-1 1.7-1.6 2.9-1.6 2.2 0 3.8 1.8 3.8 4.6zm-2 0c0-1.8-.9-3-2.4-3-1.4 0-2.4 1.2-2.4 3s1 3 2.4 3c1.5 0 2.4-1.2 2.4-3zM68.2 28.4c0 2.8-1.5 4.6-3.8 4.6-1.2.1-2.3-.6-2.8-1.6v4.5h-1.9v-12h1.8v1.5c.6-1 1.7-1.6 2.9-1.6 2.3 0 3.8 1.8 3.8 4.6zm-1.9 0c0-1.8-.9-3-2.4-3-1.4 0-2.4 1.2-2.4 3s1 3 2.4 3c1.5 0 2.4-1.2 2.4-3zM74.8 29.4c.1 1.2 1.3 2 3 2 1.6 0 2.7-.8 2.7-1.9 0-1-.7-1.5-2.3-1.9l-1.6-.4c-2.3-.6-3.3-1.6-3.3-3.3 0-2.1 1.9-3.6 4.5-3.6s4.4 1.5 4.5 3.6h-1.9c-.1-1.2-1.1-2-2.6-2s-2.5.8-2.5 1.9c0 .9.7 1.4 2.3 1.8l1.4.3c2.5.6 3.6 1.6 3.6 3.4 0 2.3-1.9 3.8-4.8 3.8-2.8 0-4.6-1.4-4.7-3.7h1.7zM86.4 21.8v2.1h1.7v1.5h-1.7v5c0 .8.3 1.1 1.1 1.1h.6V33c-.3.1-.7.1-1 .1-1.8 0-2.5-.7-2.5-2.4v-5.2h-1.3V24h1.3v-2.1h1.8v-.1zM89.2 28.4c0-2.8 1.7-4.6 4.3-4.6 2.6 0 4.3 1.8 4.3 4.6 0 2.9-1.7 4.6-4.3 4.6-2.7 0-4.3-1.8-4.3-4.6zm6.7 0c0-2-.9-3.1-2.4-3.1s-2.4 1.1-2.4 3.1.9 3.1 2.4 3.1 2.4-1.1 2.4-3.1zM99.3 23.9h1.8v1.5c.2-1 1.2-1.7 2.2-1.6.2 0 .4 0 .6.1v1.7c-.3-.1-.6-.1-.8-.1-1 0-1.9.8-1.9 1.8V33h-1.9v-9.1zM112.5 30.2c-.2 1.6-1.9 2.8-3.9 2.8-2.6 0-4.3-1.8-4.3-4.6s1.6-4.7 4.2-4.7c2.5 0 4.1 1.7 4.1 4.5v.6h-6.4v.1c-.1 1.3.8 2.4 2.1 2.6h.3c.9.1 1.8-.4 2.1-1.3h1.8zm-6.3-2.7h4.5c.1-1.2-.9-2.2-2.1-2.3h-.2c-1.2 0-2.2 1-2.2 2.3z"></path></g><g id="badge-app-store_svg___Group_4"><path class="badge-app-store_svg__st1" d="M40.9 11.1c1.5-.1 2.7 1 2.8 2.4v.5c0 1.9-1 3-2.8 3h-2.2v-6h2.2v.1zm-1.2 5.1h1.1c1 .1 1.9-.7 2-1.8V14c.1-1-.6-2-1.6-2.1h-1.5v4.3zM44.8 14.8c-.1-1.2.7-2.2 1.9-2.3s2.2.7 2.3 1.9v.4c.1 1.2-.7 2.2-1.9 2.3s-2.2-.7-2.3-1.9v-.4zm3.3 0c0-1-.4-1.5-1.2-1.5s-1.2.6-1.2 1.5c0 1 .4 1.6 1.2 1.6s1.2-.6 1.2-1.6zM54.7 17.1h-.9l-.9-3.3h-.1l-1 3.3h-.9l-1.2-4.5h.9l.8 3.4h.1l.9-3.4h.9l.9 3.4h.1l.8-3.4h.9l-1.3 4.5zM57 12.6h.9v.7h.1c.2-.5.8-.8 1.3-.8.8-.1 1.5.5 1.6 1.4V17.1H60v-2.7c0-.7-.3-1.1-1-1.1-.6 0-1.1.4-1.1 1V17.1H57v-4.5zM62.2 10.8h.9v6.3h-.9v-6.3zM64.3 14.8c-.1-1.2.7-2.2 1.9-2.3s2.2.7 2.3 1.9v.4c.1 1.2-.7 2.2-1.9 2.3s-2.2-.7-2.3-1.9v-.4zm3.4 0c0-1-.4-1.5-1.2-1.5-.8 0-1.2.6-1.2 1.5 0 1 .4 1.6 1.2 1.6.7 0 1.2-.6 1.2-1.6zM69.5 15.8c0-.8.6-1.3 1.7-1.3l1.2-.1V14c0-.5-.3-.7-.9-.7-.5 0-.8.2-.9.5h-.9c.1-.8.8-1.3 1.8-1.3 1.1 0 1.8.6 1.8 1.5v3.1h-.9v-.6h-.1c-.3.5-.8.7-1.4.7-.7.1-1.4-.5-1.5-1.2.1-.1.1-.1.1-.2zm2.9-.4v-.3h-1.1c-.6 0-.9.3-.9.6 0 .4.4.6.8.6.6.2 1.1-.3 1.2-.9 0 .1 0 0 0 0zM74.4 14.8c0-1.4.7-2.3 1.9-2.3.6 0 1.1.3 1.4.8h.1v-2.5h.9v6.3h-.9v-.7h-.1c-.3.5-.8.8-1.4.8-1.1 0-1.9-.9-1.9-2.4zm1 0c0 1 .5 1.5 1.2 1.5s1.2-.6 1.2-1.5-.5-1.5-1.2-1.5c-.8 0-1.2.6-1.2 1.5zM82.3 14.8c-.1-1.2.7-2.2 1.9-2.3s2.2.7 2.3 1.9v.4c.1 1.2-.7 2.2-1.9 2.3-1.2.1-2.2-.7-2.3-1.9v-.4zm3.4 0c0-1-.4-1.5-1.2-1.5-.8 0-1.2.6-1.2 1.5 0 1 .4 1.6 1.2 1.6.7 0 1.2-.6 1.2-1.6zM87.8 12.6h.9v.7h.1c.2-.5.8-.8 1.3-.8.8-.1 1.5.5 1.6 1.4V17.1h-.9v-2.7c0-.7-.3-1.1-1-1.1-.6 0-1.1.4-1.1 1V17.1h-.9v-4.5zM96.6 11.5v1.1h1v.7h-1v2.3c0 .5.2.7.6.7h.3v.8H97c-1 0-1.4-.3-1.4-1.2v-2.5h-.7v-.7h.7v-1.1h1v-.1zM98.8 10.8h.9v2.5h.1c.2-.5.8-.9 1.4-.8.8 0 1.5.6 1.6 1.4V17.1h-.9v-2.7c0-.7-.3-1.1-1-1.1-.6 0-1.1.4-1.1 1V17.1h-.9l-.1-6.3zM107.9 15.9c-.2.8-1.1 1.4-2 1.3-1.1 0-2.1-.9-2.1-2v-.3c-.2-1.1.6-2.2 1.8-2.3h.3c1.3 0 2 .9 2 2.3v.2h-3.2c-.1.7.4 1.2 1.1 1.3h.1c.4.1.9-.2 1.1-.5h.9zm-3.2-1.5h2.3c0-.6-.4-1.1-1-1.2h-.1c-.6 0-1.2.6-1.2 1.2z"></path></g></svg>